<svg width="246.23999633789063" height="66.37030813859649" viewBox="0 0 369.66666666666663 99.63812110185265" class="looka-1j8o68f"><defs id="SvgjsDefs1011"></defs><g id="SvgjsG1012" featurekey="HKaMnE-0" transform="matrix(0.9269115740841316,0,0,0.9269115740841316,1.0574522242257034,16.097730517771538)" fill="#000000"><path xmlns="http://www.w3.org/2000/svg" d="M48.1534348,11.7619305H16.4500141c-6.1412687,0-11.1177387,4.9762363-11.1177387,11.117506v31.7050896  c0,6.1412697,4.97647,11.1209183,11.1177387,11.1209183h31.7034206c6.1408806,0,11.1209221-4.9796486,11.1209221-11.1209183  V22.8794365C59.2743568,16.7381668,54.2943153,11.7619305,48.1534348,11.7619305z"></path><path xmlns="http://www.w3.org/2000/svg" d="M88.5045242,33.0447998H69.3097229c-3.7171402,0-6.735157,3.0149879-6.735157,6.7286339V58.970253  c0,3.7202072,3.0180168,6.7351913,6.735157,6.7351913h19.1948013c3.7205505,0,6.732048-3.0149841,6.732048-6.7351913V39.7734337  C95.2365723,36.0597878,92.2250748,33.0447998,88.5045242,33.0447998z"></path><path xmlns="http://www.w3.org/2000/svg" d="M77.1422272,69.7399445H66.3590775c-2.0880737,0-3.7845116,1.6946945-3.7845116,3.7879639V84.307991  c0,2.0894699,1.6964378,3.7845078,3.7845116,3.7845078h10.7831497c2.089859,0,3.7831879-1.6950378,3.7831879-3.7845078V73.5279083  C80.925415,71.434639,79.2320862,69.7399445,77.1422272,69.7399445z"></path><path xmlns="http://www.w3.org/2000/svg" d="M56.8350182,69.7399445h-6.9482002c-1.3468742,0-2.4389496,1.0938187-2.4389496,2.4375916v6.9547577  c0,1.343811,1.0920753,2.4376297,2.4389496,2.4376297h6.9482002c1.3485832,0,2.4393387-1.0938187,2.4393387-2.4376297V72.177536  C59.2743568,70.8337631,58.1836014,69.7399445,56.8350182,69.7399445z"></path></g><g id="SvgjsG1013" featurekey="J3GnXt-0" transform="matrix(3.4958899348904766,0,0,3.4958899348904766,99.85376665424107,12.94005671766162)" fill="#000000"><path d="M10.86 4.880000000000001 l-0.000019531 15.12 l-1.8 0 l0 -1.36 l-0.04 0 c-0.34666 0.50666 -0.81666 0.9 -1.41 1.18 s-1.2233 0.42 -1.89 0.42 c-1.4267 -0.01334 -2.5834 -0.48668 -3.47 -1.42 s-1.3367 -2.12 -1.35 -3.56 c0 -1.4533 0.44334 -2.64 1.33 -3.56 s2.05 -1.3933 3.49 -1.42 c0.65334 0 1.28 0.14 1.88 0.42 s1.0733 0.67334 1.42 1.18 l0.04 0 l0 -7 l1.8 0 z M2.82 15.26 c0 0.97334 0.28666 1.7633 0.86 2.37 s1.3267 0.91666 2.26 0.93 c0.94666 0 1.7033 -0.30334 2.27 -0.91 s0.85 -1.4033 0.85 -2.39 c0 -0.97334 -0.28 -1.7633 -0.84 -2.37 s-1.3267 -0.91666 -2.3 -0.93 c-0.93334 0 -1.6833 0.30666 -2.25 0.92 s-0.85 1.4067 -0.85 2.38 z M14.64 5.800000000000001 c0.36 0 0.67002 0.13002 0.93002 0.39002 s0.39 0.57 0.39 0.93 c0 0.37334 -0.13334 0.68668 -0.4 0.94002 s-0.57332 0.38 -0.91998 0.38 c-0.37334 0 -0.68668 -0.12666 -0.94002 -0.38 s-0.38 -0.56668 -0.38 -0.94002 s0.13334 -0.68668 0.4 -0.94002 s0.57332 -0.38 0.91998 -0.38 z M15.54 10.52 l0 9.48 l-1.8 0 l0 -9.48 l1.8 0 z M19.34 10.52 l2.84 7.26 l2.72 -7.26 l1.92 0 l-3.72 9.48 l-1.98 0 l-3.86 -9.48 l2.08 0 z M29.34 10.52 l2.82 7.4 l0.04 0 l2.68 -7.4 l1.94 0 l-4.48 11.48 c-0.41334 1.1067 -0.86668 1.85 -1.36 2.23 s-1.1267 0.57 -1.9 0.57 c-0.65334 0 -1.1867 -0.08666 -1.6 -0.26 l0.22 -1.62 c0.37334 0.13334 0.73334 0.2 1.08 0.2 c0.56 0 0.96334 -0.13666 1.21 -0.41 s0.46332 -0.66334 0.64998 -1.17 l0.56 -1.48 l-3.94 -9.54 l2.08 0 z M42.2 10.28 c1.2 0 2.15 0.27328 2.85 0.81994 s1.07 1.3067 1.11 2.28 l0 5.08 c0 0.48 0.02666 0.99334 0.08 1.54 l-1.6 0 c-0.04 -0.42666 -0.06 -0.90666 -0.06 -1.44 l-0.04 0 c-0.41334 0.61334 -0.89 1.0467 -1.43 1.3 s-1.17 0.38 -1.89 0.38 c-0.97334 0 -1.7633 -0.26 -2.37 -0.78 s-0.91 -1.2067 -0.91 -2.06 c0 -1.08 0.45334 -1.8967 1.36 -2.45 s2.1866 -0.83 3.84 -0.83 l1.34 0 l0 -0.34 c0 -0.64 -0.21 -1.1433 -0.63 -1.51 s-0.97 -0.55 -1.65 -0.55 c-0.50666 0 -0.95 0.07666 -1.33 0.23 s-0.83 0.43668 -1.35 0.85002 l-1.08 -1.12 c1.0267 -0.90666 2.28 -1.3733 3.76 -1.4 z M39.74 17.259999999999998 c0 1.0267 0.68002 1.54 2.04 1.54 c0.81334 0 1.4633 -0.24334 1.95 -0.73 s0.73666 -1.19 0.75 -2.11 l0 -0.52 l-1.02 0 c-1.1733 0 -2.0866 0.15 -2.74 0.45 s-0.98 0.75666 -0.98 1.37 z M53.74 10.28 c1.0667 0 1.9033 0.32 2.51 0.96 s0.91666 1.5 0.93 2.58 l0 6.18 l-1.8 0 l0 -5.66 c0 -0.73334 -0.19 -1.3133 -0.57 -1.74 s-0.91 -0.64 -1.59 -0.64 c-0.84 0 -1.49 0.28 -1.95 0.84 s-0.69 1.3067 -0.69 2.24 l0 4.96 l-1.8 0 l0 -9.48 l1.8 0 l0 1.46 l0.04 0 c0.25334 -0.53334 0.66334 -0.95 1.23 -1.25 s1.1967 -0.45 1.89 -0.45 z M63.10000000000001 10.28 c0.72 0 1.3633 0.13338 1.93 0.40004 s1.0033 0.65332 1.31 1.16 l-1.4 1.06 c-0.53334 -0.62666 -1.18 -0.94 -1.94 -0.94 c-0.45334 0 -0.83 0.1 -1.13 0.3 s-0.45 0.45334 -0.45 0.76 c0 0.66666 0.62 1.12 1.86 1.36 c1.2133 0.22666 2.07 0.56 2.57 1 s0.75 1.0667 0.75 1.88 c0 0.92 -0.35 1.6433 -1.05 2.17 s-1.6367 0.79666 -2.81 0.81 c-0.88 0 -1.6033 -0.13666 -2.17 -0.41 s-1.0567 -0.69668 -1.47 -1.27 l1.36 -1.12 c0.72 0.74666 1.4867 1.12 2.3 1.12 c0.53334 0 0.98668 -0.10666 1.36 -0.32 s0.56 -0.50668 0.56 -0.88002 c0 -0.65334 -0.6 -1.1067 -1.8 -1.36 c-1.3333 -0.26666 -2.23 -0.62332 -2.69 -1.07 s-0.69 -1.0233 -0.69 -1.73 c0 -0.88 0.34 -1.5833 1.02 -2.11 s1.54 -0.79666 2.58 -0.81 z M70.58 4.880000000000001 l0.000019531 7.1 l0.04 0 c0.25334 -0.53334 0.66334 -0.95 1.23 -1.25 s1.1967 -0.45 1.89 -0.45 c1.0533 0 1.89 0.32 2.51 0.96 s0.93 1.5 0.93 2.58 l0 6.18 l-1.8 0 l0 -5.66 c0 -0.73334 -0.19 -1.3133 -0.57 -1.74 s-0.91 -0.64 -1.59 -0.64 c-0.84 0 -1.4867 0.27334 -1.94 0.82 s-0.68668 1.3 -0.70002 2.26 l0 4.96 l-1.8 0 l0 -15.12 l1.8 0 z"></path></g></svg>